<svg width="132" height="60" viewBox="0 0 132 60" fill="none" xmlns="http://www.w3.org/2000/svg">
<rect x="0.5" y="8.5" width="131" height="43" rx="7.5" stroke="#FB8F1D"/>
<path d="M47.1985 35V24.0909H48.8445V33.5831H53.7876V35H47.1985ZM58.9838 35.1651C58.2168 35.1651 57.5474 34.9893 56.9757 34.6378C56.4039 34.2862 55.96 33.7944 55.644 33.1623C55.3279 32.5302 55.1699 31.7915 55.1699 30.9464C55.1699 30.0977 55.3279 29.3555 55.644 28.7198C55.96 28.0842 56.4039 27.5906 56.9757 27.239C57.5474 26.8874 58.2168 26.7116 58.9838 26.7116C59.7509 26.7116 60.4203 26.8874 60.992 27.239C61.5637 27.5906 62.0076 28.0842 62.3237 28.7198C62.6397 29.3555 62.7978 30.0977 62.7978 30.9464C62.7978 31.7915 62.6397 32.5302 62.3237 33.1623C62.0076 33.7944 61.5637 34.2862 60.992 34.6378C60.4203 34.9893 59.7509 35.1651 58.9838 35.1651ZM58.9892 33.8281C59.4863 33.8281 59.8983 33.6967 60.225 33.4339C60.5517 33.1712 60.7931 32.8214 60.9494 32.3846C61.1092 31.9478 61.1891 31.4666 61.1891 30.9411C61.1891 30.419 61.1092 29.9396 60.9494 29.5028C60.7931 29.0625 60.5517 28.7092 60.225 28.4428C59.8983 28.1765 59.4863 28.0433 58.9892 28.0433C58.4885 28.0433 58.073 28.1765 57.7427 28.4428C57.416 28.7092 57.1728 29.0625 57.013 29.5028C56.8567 29.9396 56.7786 30.419 56.7786 30.9411C56.7786 31.4666 56.8567 31.9478 57.013 32.3846C57.1728 32.8214 57.416 33.1712 57.7427 33.4339C58.073 33.6967 58.4885 33.8281 58.9892 33.8281ZM68.0059 38.2386C67.3561 38.2386 66.7968 38.1534 66.328 37.983C65.8628 37.8125 65.4829 37.587 65.1881 37.3065C64.8934 37.0259 64.6732 36.7188 64.5276 36.3849L65.8966 35.8203C65.9925 35.9766 66.1203 36.1417 66.2801 36.3157C66.4434 36.4933 66.6636 36.6442 66.9406 36.7685C67.2211 36.8928 67.5816 36.9549 68.0219 36.9549C68.6256 36.9549 69.1246 36.8075 69.5187 36.5128C69.9129 36.2216 70.11 35.7564 70.11 35.1172V33.5085H70.0088C69.9129 33.6825 69.7744 33.8761 69.5933 34.0891C69.4157 34.3022 69.1707 34.4869 68.8582 34.6431C68.5457 34.7994 68.1391 34.8775 67.6384 34.8775C66.9921 34.8775 66.4097 34.7266 65.8912 34.4247C65.3763 34.1193 64.968 33.6701 64.6661 33.0771C64.3678 32.4805 64.2187 31.7472 64.2187 30.8771C64.2187 30.0071 64.366 29.2614 64.6608 28.6399C64.9591 28.0185 65.3675 27.5426 65.8859 27.2124C66.4044 26.8786 66.9921 26.7116 67.6491 26.7116C68.1569 26.7116 68.567 26.7969 68.8795 26.9673C69.192 27.1342 69.4353 27.3295 69.6093 27.5533C69.7868 27.777 69.9236 27.9741 70.0194 28.1445H70.1366V26.8182H71.6974V35.1811C71.6974 35.8842 71.534 36.4613 71.2073 36.9123C70.8806 37.3633 70.4385 37.6971 69.8809 37.9137C69.327 38.1303 68.702 38.2386 68.0059 38.2386ZM67.99 33.5565C68.4481 33.5565 68.8351 33.4499 69.1512 33.2369C69.4708 33.0202 69.7123 32.7113 69.8756 32.31C70.0425 31.9052 70.126 31.4205 70.126 30.8558C70.126 30.3054 70.0443 29.8207 69.8809 29.4016C69.7176 28.9826 69.4779 28.6559 69.1618 28.4215C68.8458 28.1836 68.4552 28.0646 67.99 28.0646C67.5106 28.0646 67.1111 28.1889 66.7915 28.4375C66.4719 28.6825 66.2304 29.0163 66.067 29.4389C65.9072 29.8615 65.8273 30.3338 65.8273 30.8558C65.8273 31.392 65.909 31.8626 66.0724 32.2674C66.2357 32.6722 66.4772 32.9883 66.7968 33.2156C67.1199 33.4428 67.5177 33.5565 67.99 33.5565ZM73.8334 35V26.8182H75.426V35H73.8334ZM74.6377 25.5558C74.3607 25.5558 74.1228 25.4634 73.9239 25.2788C73.7286 25.0906 73.6309 24.8668 73.6309 24.6076C73.6309 24.3448 73.7286 24.1211 73.9239 23.9364C74.1228 23.7482 74.3607 23.6541 74.6377 23.6541C74.9147 23.6541 75.1508 23.7482 75.3461 23.9364C75.545 24.1211 75.6444 24.3448 75.6444 24.6076C75.6444 24.8668 75.545 25.0906 75.3461 25.2788C75.1508 25.4634 74.9147 25.5558 74.6377 25.5558ZM79.1614 30.142V35H77.5687V26.8182H79.0975V28.1499H79.1987C79.3869 27.7166 79.6816 27.3686 80.0829 27.1058C80.4877 26.843 80.9973 26.7116 81.6117 26.7116C82.1692 26.7116 82.6575 26.8288 83.0765 27.0632C83.4956 27.294 83.8205 27.6385 84.0513 28.0966C84.2821 28.5547 84.3976 29.1211 84.3976 29.7958V35H82.8049V29.9876C82.8049 29.3945 82.6504 28.9311 82.3414 28.5973C82.0325 28.2599 81.6081 28.0913 81.0684 28.0913C80.699 28.0913 80.3706 28.1712 80.0829 28.331C79.7988 28.4908 79.5733 28.7251 79.4064 29.0341C79.2431 29.3395 79.1614 29.7088 79.1614 30.142Z" fill="#FB8F1D"/>
</svg>
