<svg width="132" height="60" viewBox="0 0 132 60" fill="none" xmlns="http://www.w3.org/2000/svg">
<rect y="8" width="132" height="44" rx="8" fill="#FB8F1D"/>
<path d="M37.1985 35V24.0909H41.087C41.9322 24.0909 42.6335 24.2365 43.1911 24.5277C43.7521 24.8189 44.1712 25.2219 44.4482 25.7369C44.7251 26.2482 44.8636 26.8395 44.8636 27.5107C44.8636 28.1783 44.7234 28.766 44.4428 29.2738C44.1658 29.7781 43.7468 30.1705 43.1857 30.451C42.6282 30.7315 41.9268 30.8718 41.0817 30.8718H38.136V29.4549H40.9325C41.4652 29.4549 41.8984 29.3786 42.2322 29.2259C42.5696 29.0732 42.8164 28.8512 42.9727 28.56C43.1289 28.2688 43.207 27.919 43.207 27.5107C43.207 27.0987 43.1271 26.7418 42.9673 26.44C42.8111 26.1381 42.5643 25.9073 42.2269 25.7475C41.8931 25.5842 41.4545 25.5025 40.9112 25.5025H38.8445V35H37.1985ZM42.5838 30.0781L45.2791 35H43.4041L40.7621 30.0781H42.5838ZM50.1624 35.1651C49.3563 35.1651 48.662 34.9929 48.0796 34.6484C47.5008 34.3004 47.0534 33.8121 46.7373 33.1836C46.4248 32.5515 46.2686 31.8111 46.2686 30.9624C46.2686 30.1243 46.4248 29.3857 46.7373 28.7464C47.0534 28.1072 47.4937 27.6083 48.0583 27.2496C48.6265 26.891 49.2906 26.7116 50.0505 26.7116C50.5122 26.7116 50.9596 26.788 51.3928 26.9407C51.8261 27.0934 52.2149 27.3331 52.5594 27.6598C52.9039 27.9865 53.1755 28.4109 53.3744 28.9329C53.5732 29.4513 53.6727 30.0817 53.6727 30.8239V31.3885H47.1688V30.1953H52.1119C52.1119 29.7763 52.0267 29.4052 51.8563 29.082C51.6858 28.7553 51.4461 28.4979 51.1372 28.3097C50.8318 28.1214 50.4731 28.0273 50.0612 28.0273C49.6137 28.0273 49.2231 28.1374 48.8893 28.3576C48.559 28.5742 48.3034 28.8583 48.1222 29.2099C47.9447 29.5579 47.8559 29.9361 47.8559 30.3445V31.2766C47.8559 31.8235 47.9518 32.2887 48.1436 32.6722C48.3389 33.0558 48.6105 33.3487 48.9585 33.5511C49.3066 33.75 49.7132 33.8494 50.1784 33.8494C50.4802 33.8494 50.7554 33.8068 51.004 33.7216C51.2526 33.6328 51.4674 33.5014 51.6485 33.3274C51.8296 33.1534 51.9681 32.9386 52.064 32.6829L53.5715 32.9545C53.4507 33.3984 53.2341 33.7873 52.9216 34.1211C52.6127 34.4513 52.2238 34.7088 51.7551 34.8935C51.2899 35.0746 50.759 35.1651 50.1624 35.1651ZM58.8702 38.2386C58.2203 38.2386 57.661 38.1534 57.1923 37.983C56.7271 37.8125 56.3471 37.587 56.0524 37.3065C55.7576 37.0259 55.5375 36.7188 55.3919 36.3849L56.7608 35.8203C56.8567 35.9766 56.9846 36.1417 57.1444 36.3157C57.3077 36.4933 57.5279 36.6442 57.8049 36.7685C58.0854 36.8928 58.4458 36.9549 58.8862 36.9549C59.4899 36.9549 59.9888 36.8075 60.383 36.5128C60.7772 36.2216 60.9743 35.7564 60.9743 35.1172V33.5085H60.873C60.7772 33.6825 60.6387 33.8761 60.4576 34.0891C60.28 34.3022 60.035 34.4869 59.7225 34.6431C59.41 34.7994 59.0034 34.8775 58.5027 34.8775C57.8564 34.8775 57.274 34.7266 56.7555 34.4247C56.2406 34.1193 55.8322 33.6701 55.5304 33.0771C55.2321 32.4805 55.0829 31.7472 55.0829 30.8771C55.0829 30.0071 55.2303 29.2614 55.525 28.6399C55.8233 28.0185 56.2317 27.5426 56.7502 27.2124C57.2686 26.8786 57.8564 26.7116 58.5133 26.7116C59.0211 26.7116 59.4313 26.7969 59.7438 26.9673C60.0563 27.1342 60.2995 27.3295 60.4735 27.5533C60.6511 27.777 60.7878 27.9741 60.8837 28.1445H61.0009V26.8182H62.5616V35.1811C62.5616 35.8842 62.3983 36.4613 62.0716 36.9123C61.7449 37.3633 61.3027 37.6971 60.7452 37.9137C60.1912 38.1303 59.5662 38.2386 58.8702 38.2386ZM58.8542 33.5565C59.3123 33.5565 59.6994 33.4499 60.0154 33.2369C60.335 33.0202 60.5765 32.7113 60.7399 32.31C60.9068 31.9052 60.9902 31.4205 60.9902 30.8558C60.9902 30.3054 60.9086 29.8207 60.7452 29.4016C60.5819 28.9826 60.3422 28.6559 60.0261 28.4215C59.71 28.1836 59.3194 28.0646 58.8542 28.0646C58.3748 28.0646 57.9753 28.1889 57.6557 28.4375C57.3361 28.6825 57.0946 29.0163 56.9313 29.4389C56.7715 29.8615 56.6916 30.3338 56.6916 30.8558C56.6916 31.392 56.7733 31.8626 56.9366 32.2674C57.1 32.6722 57.3414 32.9883 57.661 33.2156C57.9842 33.4428 58.3819 33.5565 58.8542 33.5565ZM64.6976 35V26.8182H66.2903V35H64.6976ZM65.502 25.5558C65.225 25.5558 64.987 25.4634 64.7882 25.2788C64.5929 25.0906 64.4952 24.8668 64.4952 24.6076C64.4952 24.3448 64.5929 24.1211 64.7882 23.9364C64.987 23.7482 65.225 23.6541 65.502 23.6541C65.7789 23.6541 66.0151 23.7482 66.2104 23.9364C66.4093 24.1211 66.5087 24.3448 66.5087 24.6076C66.5087 24.8668 66.4093 25.0906 66.2104 25.2788C66.0151 25.4634 65.7789 25.5558 65.502 25.5558ZM74.564 28.8157L73.1205 29.0714C73.0601 28.8867 72.9642 28.7109 72.8328 28.544C72.705 28.3771 72.531 28.2404 72.3108 28.1339C72.0906 28.0273 71.8154 27.9741 71.4852 27.9741C71.0342 27.9741 70.6578 28.0753 70.3559 28.2777C70.0541 28.4766 69.9031 28.734 69.9031 29.0501C69.9031 29.3235 70.0044 29.5437 70.2068 29.7106C70.4092 29.8775 70.7359 30.0142 71.1869 30.1207L72.4866 30.419C73.2394 30.593 73.8005 30.8612 74.1698 31.2234C74.5392 31.5856 74.7238 32.0561 74.7238 32.6349C74.7238 33.125 74.5818 33.5618 74.2977 33.9453C74.0171 34.3253 73.6247 34.6236 73.1205 34.8402C72.6198 35.0568 72.0392 35.1651 71.3786 35.1651C70.4624 35.1651 69.7149 34.9698 69.1361 34.5792C68.5573 34.185 68.2021 33.6257 68.0708 32.9013L69.6102 32.6669C69.7061 33.0682 69.9031 33.3718 70.2014 33.5778C70.4997 33.7802 70.8886 33.8814 71.368 33.8814C71.89 33.8814 72.3073 33.7731 72.6198 33.5565C72.9323 33.3363 73.0885 33.0682 73.0885 32.7521C73.0885 32.4964 72.9926 32.2816 72.8009 32.1076C72.6127 31.9336 72.3232 31.8022 71.9326 31.7134L70.5477 31.4098C69.7842 31.2358 69.2195 30.9588 68.8538 30.5788C68.4916 30.1989 68.3105 29.7177 68.3105 29.1353C68.3105 28.6523 68.4454 28.2298 68.7153 27.8675C68.9852 27.5053 69.358 27.223 69.8339 27.0206C70.3097 26.8146 70.8548 26.7116 71.4692 26.7116C72.3534 26.7116 73.0494 26.9034 73.5573 27.2869C74.0651 27.6669 74.4007 28.1765 74.564 28.8157ZM80.2942 26.8182V28.0966H75.8251V26.8182H80.2942ZM77.0236 24.858H78.6163V32.5977C78.6163 32.9066 78.6625 33.1392 78.7548 33.2955C78.8471 33.4482 78.9661 33.5529 79.1117 33.6097C79.2608 33.663 79.4224 33.6896 79.5964 33.6896C79.7243 33.6896 79.8361 33.6808 79.932 33.663C80.0279 33.6452 80.1025 33.631 80.1557 33.6204L80.4434 34.9361C80.351 34.9716 80.2196 35.0071 80.0492 35.0426C79.8787 35.0817 79.6657 35.103 79.41 35.1065C78.9909 35.1136 78.6003 35.0391 78.2381 34.8828C77.8759 34.7266 77.5829 34.4851 77.3592 34.1584C77.1355 33.8317 77.0236 33.4215 77.0236 32.9279V24.858ZM85.4944 35.1651C84.6883 35.1651 83.9941 34.9929 83.4117 34.6484C82.8328 34.3004 82.3854 33.8121 82.0693 33.1836C81.7568 32.5515 81.6006 31.8111 81.6006 30.9624C81.6006 30.1243 81.7568 29.3857 82.0693 28.7464C82.3854 28.1072 82.8257 27.6083 83.3904 27.2496C83.9585 26.891 84.6226 26.7116 85.3825 26.7116C85.8442 26.7116 86.2916 26.788 86.7249 26.9407C87.1581 27.0934 87.547 27.3331 87.8914 27.6598C88.2359 27.9865 88.5075 28.4109 88.7064 28.9329C88.9053 29.4513 89.0047 30.0817 89.0047 30.8239V31.3885H82.5008V30.1953H87.444C87.444 29.7763 87.3588 29.4052 87.1883 29.082C87.0178 28.7553 86.7781 28.4979 86.4692 28.3097C86.1638 28.1214 85.8051 28.0273 85.3932 28.0273C84.9458 28.0273 84.5551 28.1374 84.2213 28.3576C83.8911 28.5742 83.6354 28.8583 83.4543 29.2099C83.2767 29.5579 83.1879 29.9361 83.1879 30.3445V31.2766C83.1879 31.8235 83.2838 32.2887 83.4756 32.6722C83.6709 33.0558 83.9426 33.3487 84.2906 33.5511C84.6386 33.75 85.0452 33.8494 85.5104 33.8494C85.8122 33.8494 86.0874 33.8068 86.336 33.7216C86.5846 33.6328 86.7994 33.5014 86.9806 33.3274C87.1617 33.1534 87.3002 32.9386 87.396 32.6829L88.9035 32.9545C88.7828 33.3984 88.5661 33.7873 88.2536 34.1211C87.9447 34.4513 87.5558 34.7088 87.0871 34.8935C86.6219 35.0746 86.091 35.1651 85.4944 35.1651ZM90.7718 35V26.8182H92.3113V28.1179H92.3965C92.5456 27.6776 92.8084 27.3313 93.1848 27.0792C93.5648 26.8235 93.9945 26.6957 94.4739 26.6957C94.5733 26.6957 94.6905 26.6992 94.8255 26.7063C94.964 26.7134 95.0723 26.7223 95.1504 26.733V28.2564C95.0865 28.2386 94.9728 28.2191 94.8095 28.1978C94.6461 28.1729 94.4828 28.1605 94.3194 28.1605C93.943 28.1605 93.6074 28.2404 93.3127 28.4002C93.0215 28.5565 92.7907 28.7749 92.6202 29.0554C92.4498 29.3324 92.3645 29.6484 92.3645 30.0036V35H90.7718Z" fill="white"/>
</svg>
